<!DOCTYPE svg PUBLIC "-//W3C//DTD SVG 20010904//EN" "http://www.w3.org/TR/2001/REC-SVG-20010904/DTD/svg10.dtd">
<svg version="1.0" xmlns="http://www.w3.org/2000/svg" width="167px" height="179px" viewBox="0 0 1670 1790" preserveAspectRatio="xMidYMid meet">
<g id="layer101" fill="#363636" stroke="none">
 <path d="M0 895 l0 -895 835 0 835 0 0 895 0 895 -835 0 -835 0 0 -895z"/>
 </g>
<g id="layer102" fill="#ffffff" stroke="none">
 <path d="M0 895 l0 -895 835 0 835 0 0 895 0 895 -835 0 -835 0 0 -895z m1255 283 c6 -16 95 -542 92 -544 -1 -1 -42 27 -90 63 -68 50 -87 69 -81 81 25 58 12 102 -36 127 -37 19 -74 11 -100 -22 -24 -30 -26 -85 -5 -103 8 -7 15 -16 15 -21 0 -11 -208 -293 -218 -296 -4 -1 -55 63 -115 143 l-107 145 20 26 c27 35 26 78 -5 108 -50 51 -135 15 -135 -58 0 -18 5 -38 10 -43 7 -7 -22 -33 -87 -82 -54 -39 -98 -70 -99 -69 -2 3 86 530 91 545 3 9 97 12 425 12 327 0 422 -3 425 -12z"/>
 </g>

</svg>